<svg xmlns="http://www.w3.org/2000/svg" xmlns:xlink="http://www.w3.org/1999/xlink" width="16" height="16" viewBox="0 0 16 16">
  <defs>
    <clipPath id="clip-path">
      <rect id="Rectangle_3230" data-name="Rectangle 3230" width="16" height="16" transform="translate(319 123)" fill="#fff"/>
    </clipPath>
  </defs>
  <g id="Mask_Group_806" data-name="Mask Group 806" transform="translate(-319 -123)" clip-path="url(#clip-path)">
    <g id="eye" transform="translate(319 125.059)">
      <g id="Group_8597" data-name="Group 8597" transform="translate(6.813 5.147)">
        <g id="Group_8596" data-name="Group 8596">
          <ellipse id="Ellipse_83" data-name="Ellipse 83" cx="1.219" cy="1.295" rx="1.219" ry="1.295" fill="#fff"/>
        </g>
      </g>
      <g id="Group_8599" data-name="Group 8599" transform="translate(4.469 2.656)">
        <g id="Group_8598" data-name="Group 8598">
          <path id="Path_4559" data-name="Path 4559" d="M8.311,4.715A3.683,3.683,0,0,0,4.749,8.5a3.683,3.683,0,0,0,3.562,3.785A3.683,3.683,0,0,0,11.873,8.5,3.683,3.683,0,0,0,8.311,4.715Zm0,6.242A2.391,2.391,0,0,1,6,8.5,2.391,2.391,0,0,1,8.311,6.043,2.391,2.391,0,0,1,10.623,8.5,2.391,2.391,0,0,1,8.311,10.957Z" transform="translate(-4.749 -4.715)" fill="#fff"/>
        </g>
      </g>
      <g id="Group_8601" data-name="Group 8601" transform="translate(0)">
        <g id="Group_8600" data-name="Group 8600">
          <path id="Path_4560" data-name="Path 4560" d="M15.6,7.051A12.581,12.581,0,0,0,12.8,3.908a7.668,7.668,0,0,0-4.789-1.85A7.706,7.706,0,0,0,3.221,3.9,12.662,12.662,0,0,0,.411,7.041a2.792,2.792,0,0,0,0,2.917A12.661,12.661,0,0,0,3.221,13.1a7.706,7.706,0,0,0,4.793,1.845,8.454,8.454,0,0,0,5.78-2.735.694.694,0,0,0,.028-.939.6.6,0,0,0-.883-.03,7.275,7.275,0,0,1-4.925,2.375c-3.035,0-5.55-2.756-6.558-4.384a1.4,1.4,0,0,1,0-1.458C2.464,6.143,4.979,3.387,8.014,3.387s5.535,2.759,6.534,4.388a1.4,1.4,0,0,1,0,1.449.69.69,0,0,0,.183.919.6.6,0,0,0,.865-.194A2.8,2.8,0,0,0,15.6,7.051Z" transform="translate(0 -2.059)" fill="#fff"/>
        </g>
      </g>
    </g>
  </g>
</svg>
