<svg>
    <defs>
        <svg id="heartSolid" xmlns="http://www.w3.org/2000/svg" xmlns:xlink="http://www.w3.org/1999/xlink" width="21"
             height="21" viewBox="0 0 21 21">
            <defs>
                <style>.a,.c{fill:#f01c41;}.a{opacity:0;}.b{clip-path:url(#a);}</style>
                <clipPath id="a">
                    <rect class="a" width="21" height="21" transform="translate(175 1694)"/>
                </clipPath>
            </defs>
            <g class="b" transform="translate(-175 -1694)">
                <g transform="translate(175 1695.139)">
                    <g transform="translate(0 0)">
                        <path class="c"
                              d="M18.52,2.489a6.181,6.181,0,0,0-2.97-1.23A6.289,6.289,0,0,0,10.5,2.812a6.293,6.293,0,0,0-8.652,9.136l7.54,7.54a1.459,1.459,0,0,0,1.038.427,1.477,1.477,0,0,0,1.038-.427l1.169-1.169a.786.786,0,0,0-1.112-1.112L10.427,18.3l-7.466-7.47a4.727,4.727,0,0,1,.458-7.1A4.586,4.586,0,0,1,5.638,2.8a4.723,4.723,0,0,1,4,1.347l.863.863.855-.855a4.715,4.715,0,0,1,3.99-1.343,4.636,4.636,0,0,1,2.215.916,4.719,4.719,0,0,1,1.866,3.907,4.9,4.9,0,0,1-1.478,3.3l-3.977,3.973a.786.786,0,0,0,1.112,1.112l3.977-3.977A6.426,6.426,0,0,0,21,7.683,6.25,6.25,0,0,0,18.52,2.489Z"
                              transform="translate(0 -1.194)"/>
                    </g>
                </g>
            </g>
        </svg>

        <svg id="globus" xmlns="http://www.w3.org/2000/svg" xmlns:xlink="http://www.w3.org/1999/xlink" width="21"
             height="21" viewBox="0 0 21 21">
            <defs>
                <clipPath id="clip-path">
                    <rect id="Rectangle_3596" data-name="Rectangle 3596" width="21" height="21"
                          transform="translate(10 177.5)"/>
                </clipPath>
            </defs>
            <g id="Mask_Group_887" data-name="Mask Group 887" transform="translate(-10 -177.5)"
               clip-path="url(#clip-path)">
                <path id="Path_4942" data-name="Path 4942"
                      d="M323.935,413.528a10.5,10.5,0,1,0,10.5,10.5A10.512,10.512,0,0,0,323.935,413.528Zm-7.757,6.022a8.985,8.985,0,0,1,3.5-3.405.308.308,0,0,1,.4.45,12.491,12.491,0,0,0-1.64,3.21.308.308,0,0,1-.292.21h-1.7a.309.309,0,0,1-.267-.464Zm-.919,6.716a9.051,9.051,0,0,1,0-4.476.308.308,0,0,1,.3-.232h2.059a.308.308,0,0,1,.306.355,13.74,13.74,0,0,0,0,4.229.31.31,0,0,1-.306.356h-2.059A.309.309,0,0,1,315.259,426.265Zm4.8,5.58a.309.309,0,0,1-.378.067,9,9,0,0,1-3.5-3.406.309.309,0,0,1,.267-.463h1.7a.308.308,0,0,1,.292.209,12.491,12.491,0,0,0,1.64,3.21A.308.308,0,0,1,320.06,431.845Zm3.1.762a.308.308,0,0,1-.309.309l-.037,0a.527.527,0,0,1-.273-.114,13.448,13.448,0,0,1-2.5-4.347.307.307,0,0,1,.291-.41h2.522a.308.308,0,0,1,.309.309Zm0-6.418a.308.308,0,0,1-.309.309h-3.07a.308.308,0,0,1-.3-.259,13.789,13.789,0,0,1,0-4.421.307.307,0,0,1,.3-.259h3.07a.308.308,0,0,1,.309.308Zm0-6.484a.309.309,0,0,1-.309.309h-2.522a.308.308,0,0,1-.291-.411,13.5,13.5,0,0,1,2.5-4.347.309.309,0,0,1,.2-.106.4.4,0,0,1,.279.072.343.343,0,0,1,.142.226Zm4.647-3.494a.308.308,0,0,1,.379-.067,8.992,8.992,0,0,1,3.5,3.405.309.309,0,0,1-.268.464h-1.7a.308.308,0,0,1-.292-.21,12.458,12.458,0,0,0-1.64-3.21A.308.308,0,0,1,327.81,416.212Zm-3.1-.763a.31.31,0,0,1,.1-.232.294.294,0,0,1,.243-.075.524.524,0,0,1,.272.114,13.481,13.481,0,0,1,2.5,4.347.308.308,0,0,1-.291.411h-2.522a.309.309,0,0,1-.309-.309Zm0,6.417a.308.308,0,0,1,.309-.308h3.068a.308.308,0,0,1,.3.259,13.85,13.85,0,0,1,0,4.421.309.309,0,0,1-.3.259h-3.068a.308.308,0,0,1-.309-.309Zm.422,11.04h-.044a.381.381,0,0,1-.236-.073.342.342,0,0,1-.141-.226v-4.255a.309.309,0,0,1,.309-.309h2.522a.307.307,0,0,1,.291.41,13.465,13.465,0,0,1-2.5,4.347A.309.309,0,0,1,325.129,432.906Zm6.563-4.4a9,9,0,0,1-3.5,3.406.309.309,0,0,1-.4-.451,12.464,12.464,0,0,0,1.641-3.21.308.308,0,0,1,.292-.209h1.7a.309.309,0,0,1,.268.463Zm.619-2.008h-2.059a.31.31,0,0,1-.3-.356,13.8,13.8,0,0,0,0-4.229.308.308,0,0,1,.3-.355h2.059a.308.308,0,0,1,.3.232,9.027,9.027,0,0,1,0,4.476A.309.309,0,0,1,332.311,426.5Z"
                      transform="translate(-303.436 -236.028)" fill-rule="evenodd"/>
            </g>
        </svg>

        <svg id="cart" xmlns="http://www.w3.org/2000/svg" xmlns:xlink="http://www.w3.org/1999/xlink" width="21"
             height="21" viewBox="0 0 21 21">
            <defs>
                <style>.a,.c{fill:#f01c41;}.a{opacity:0.27;}.b{clip-path:url(#a);}</style>
                <clipPath id="a">
                    <rect class="a" width="21" height="21" transform="translate(34 177.5)"/>
                </clipPath>
            </defs>
            <g class="b" transform="translate(-34 -177.5)">
                <path class="c"
                      d="M6.07,15.558a.691.691,0,0,1,0-1.382c2.55.009,9.275,0,11.906,0a1.529,1.529,0,0,0,1.5-1.191L20.968,6.52A1.243,1.243,0,0,0,19.761,5C18.7,5,9.719,4.956,5.117,4.938L4.388,2.231a1.49,1.49,0,0,0-1.435-1.1H.616a.616.616,0,0,0,0,1.231H2.952a.256.256,0,0,1,.247.188L6,12.946A1.921,1.921,0,0,0,4.149,14.9,1.931,1.931,0,0,0,6.07,16.789h.9a2.155,2.155,0,1,0,3.892,0h3.887a2.155,2.155,0,1,0,3.877-.033.615.615,0,0,0-.2-1.2Zm3.767,2.155a.923.923,0,1,1-.924-.923h0A.924.924,0,0,1,9.838,17.712Zm6.856.923a.923.923,0,0,1-.015-1.846h.03a.923.923,0,0,1-.015,1.846Zm3.072-12.4a.01.01,0,0,1,0,.01l-.629,2.726H17.007l.363-2.75,2.386.01a.01.01,0,0,1,.009,0ZM13.42,12.949V10.2h3.425l-.363,2.749Zm-4.294,0L8.759,10.2h3.429v2.749Zm-1.592,0h0A.334.334,0,0,1,7.21,12.7l-.675-2.5H8.759l.366,2.749Zm2.3-3.98-.37-2.782,6.742.041-.383,2.755ZM8.225,6.182,8.6,8.969H6.2l-.754-2.8Zm9.752,6.767H16.482l.363-2.749h2.01l-.58,2.512A.3.3,0,0,1,17.977,12.949Z"
                      transform="translate(34 177.5)"/>
            </g>
        </svg>

        <svg id="truck" xmlns="http://www.w3.org/2000/svg" xmlns:xlink="http://www.w3.org/1999/xlink" width="21"
             height="21" viewBox="0 0 21 21">
            <defs>
                <clipPath id="clip-path">
                    <rect id="Rectangle_3049" data-name="Rectangle 3049" width="21" height="21"/>
                </clipPath>
            </defs>
            <g id="Mask_Group_885" data-name="Mask Group 885" clip-path="url(#clip-path)">
                <path id="truck"
                      d="M21.955,11.932V16.7a.955.955,0,0,1-.955.955h-.955a2.864,2.864,0,0,1-5.727,0H8.591a2.864,2.864,0,1,1-5.727,0H1.909A.955.955,0,0,1,.955,16.7V5.25A2.864,2.864,0,0,1,3.818,2.386h8.591A2.864,2.864,0,0,1,15.273,5.25V7.159h1.909A2.864,2.864,0,0,1,19.473,8.3l2.291,3.055a.582.582,0,0,1,.067.134l.057.1A.955.955,0,0,1,21.955,11.932ZM6.682,17.659a.955.955,0,1,0-.955.955A.955.955,0,0,0,6.682,17.659ZM13.364,5.25a.955.955,0,0,0-.955-.955H3.818a.955.955,0,0,0-.955.955v10.5h.745a2.864,2.864,0,0,1,4.238,0h5.517Zm1.909,5.727h3.818L17.945,9.45a.955.955,0,0,0-.764-.382H15.273Zm2.864,6.682a.955.955,0,1,0-.955.955A.955.955,0,0,0,18.136,17.659Zm1.909-4.773H15.273V15.54a2.864,2.864,0,0,1,4.028.21h.745Z"
                      transform="translate(-0.954 -0.955)"/>
            </g>
        </svg>

        <svg id="limit" xmlns="http://www.w3.org/2000/svg" xmlns:xlink="http://www.w3.org/1999/xlink" width="21"
             height="21" viewBox="0 0 21 21" fill="currentColor">
            <defs>
                <clipPath id="clip-path">
                    <rect id="Rectangle_3049" data-name="Rectangle 3049" width="21" height="21"
                          transform="translate(39 177.5)"/>
                </clipPath>
            </defs>
            <g id="Mask_Group_882" data-name="Mask Group 882" transform="translate(-39 -177.5)"
               clip-path="url(#clip-path)">
                <path id="credit-card-search"
                      d="M19.944,3.149H5.248A3.149,3.149,0,0,0,2.1,6.3v9.447a3.149,3.149,0,0,0,3.149,3.149h4.2a1.05,1.05,0,0,0,0-2.1h-4.2a1.05,1.05,0,0,1-1.05-1.05v-6.3h16.8V10.5a1.05,1.05,0,1,0,2.1,0V6.3A3.149,3.149,0,0,0,19.944,3.149Zm1.05,4.2H4.2V6.3a1.05,1.05,0,0,1,1.05-1.05h14.7a1.05,1.05,0,0,1,1.05,1.05Zm-10.5,4.2H7.348a1.05,1.05,0,0,0,0,2.1H10.5a1.05,1.05,0,0,0,0-2.1Z"
                      transform="translate(36.9 176.39)"/>
                <path id="file-redo-alt"
                      d="M21,14.7a1.05,1.05,0,0,0-.955.63,4.273,4.273,0,0,0-2.194-.63,4.2,4.2,0,1,0,2.772,7.35,1.053,1.053,0,0,0-1.386-1.585,2.084,2.084,0,1,1-.336-3.4h-.231a1.05,1.05,0,0,0,0,2.1H21a1.05,1.05,0,0,0,1.05-1.05V15.75A1.05,1.05,0,0,0,21,14.7Z"
                      transform="translate(35.9 174.4)"/>
            </g>
        </svg>


        <svg id="installmentTrack" xmlns="http://www.w3.org/2000/svg" xmlns:xlink="http://www.w3.org/1999/xlink"
             width="18" height="18" viewBox="0 0 18 18">
            <defs>
                <style>.a{fill:#282830;}.b{opacity:0.5;clip-path:url(#a);}</style>
                <clipPath id="a">
                    <rect class="a" width="18" height="18" transform="translate(241 1694)"/>
                </clipPath>
            </defs>
            <g class="b" transform="translate(-241 -1694)">
                <g transform="translate(241 1696.454)">
                    <g transform="translate(11.326 8.759)">
                        <path class="a"
                              d="M16.111,13.08a2.269,2.269,0,1,0,2.269,2.269A2.271,2.271,0,0,0,16.111,13.08Zm0,3.4a1.134,1.134,0,1,1,1.134-1.134A1.136,1.136,0,0,1,16.111,16.483Z"
                              transform="translate(-13.842 -13.08)"/>
                    </g>
                    <g transform="translate(3.574 8.759)">
                        <path class="a"
                              d="M6.637,13.08a2.269,2.269,0,1,0,2.269,2.269A2.271,2.271,0,0,0,6.637,13.08Zm0,3.4a1.134,1.134,0,1,1,1.134-1.134A1.136,1.136,0,0,1,6.637,16.483Z"
                              transform="translate(-4.368 -13.08)"/>
                    </g>
                    <g transform="translate(11.628 1.134)">
                        <path class="a"
                              d="M17.706,5.073a.568.568,0,0,0-.507-.312H14.212V5.895H16.85l1.545,3.072,1.014-.51Z"
                              transform="translate(-14.212 -4.761)"/>
                    </g>
                    <g transform="translate(7.601 10.48)">
                        <rect class="a" width="4.292" height="1.134"/>
                    </g>
                    <g transform="translate(1.607 10.48)">
                        <path class="a" d="M4.5,15.183H2.532a.567.567,0,0,0,0,1.134H4.5a.567.567,0,1,0,0-1.134Z"
                              transform="translate(-1.964 -15.183)"/>
                    </g>
                    <g transform="translate(1.607 0)">
                        <path class="a"
                              d="M18.238,8.568,17.122,7.131a.566.566,0,0,0-.448-.219H12.553V2.941a.567.567,0,0,0-.567-.567H2.532a.567.567,0,1,0,0,1.134h8.887V7.479a.567.567,0,0,0,.567.567H16.4l.826,1.064v3.744H15.653a.567.567,0,1,0,0,1.134H17.79a.567.567,0,0,0,.567-.567V8.916A.568.568,0,0,0,18.238,8.568Z"
                              transform="translate(-1.964 -2.374)"/>
                    </g>
                    <g transform="translate(0.926 6.788)">
                        <path class="a" d="M4.309,11.67H1.7a.567.567,0,0,0,0,1.134H4.309a.567.567,0,0,0,0-1.134Z"
                              transform="translate(-1.132 -11.67)"/>
                    </g>
                    <g transform="translate(0 4.557)">
                        <path class="a" d="M5.408,8.943H.567a.567.567,0,0,0,0,1.134h4.84a.567.567,0,0,0,0-1.134Z"
                              transform="translate(0 -8.943)"/>
                    </g>
                    <g transform="translate(0.926 2.326)">
                        <path class="a" d="M6.54,6.216H1.7a.567.567,0,0,0,0,1.134H6.54a.567.567,0,1,0,0-1.134Z"
                              transform="translate(-1.132 -6.216)"/>
                    </g>
                </g>
            </g>
        </svg>

        <svg id="handshake" xmlns="http://www.w3.org/2000/svg" xmlns:xlink="http://www.w3.org/1999/xlink" width="21"
             height="21" viewBox="0 0 21 21">
            <defs>
                <clipPath id="clip-path">
                    <rect id="Rectangle_3285" data-name="Rectangle 3285" width="21" height="21"
                          transform="translate(39 177.5)"/>
                </clipPath>
            </defs>
            <g id="Mask_Group_886" data-name="Mask Group 886" transform="translate(-39 -177.5)"
               clip-path="url(#clip-path)">
                <path id="Path_4941" data-name="Path 4941"
                      d="M307.572,417.293l-.055.047.047-.057-5.2-5.122a.8.8,0,0,0-1.128,0l-1.954,1.964h-3.959l-1.958-1.965a.8.8,0,0,0-1.128,0l-5.2,5.122a.8.8,0,0,0-.24.563.806.806,0,0,0,.241.583l2.026,1.953v.172a3.644,3.644,0,0,0,.594,2.009,7.9,7.9,0,0,0,3.083,4.835,2,2,0,0,0,2.1,1.725,2.01,2.01,0,0,0,.961-.305l.326.326a2.025,2.025,0,0,0,2.853,0,1.978,1.978,0,0,0,.326-.43,2.008,2.008,0,0,0,2.552-.839,2.062,2.062,0,0,0,.244-.716,26.322,26.322,0,0,0,3.433-3.807,2.026,2.026,0,0,0-.364-1.046,2.842,2.842,0,0,0,.368-1.4v-.519l2.022-1.957A.8.8,0,0,0,307.572,417.293Zm-10.009,9.835a1.828,1.828,0,0,1,.138.156,1.592,1.592,0,0,0,.209.218.419.419,0,0,1-.059.508h0a.417.417,0,0,1-.591,0l-.289-.289Zm2.262.036-.226-.226-.263-.264-.007-.008h0c-.08-.094-.214-.232-.421-.443a.407.407,0,0,1,.151-.555.4.4,0,0,1,.489.065l.854.854a.408.408,0,0,1-.576.577Zm0-3.991a.406.406,0,0,1,.576,0l1.708,1.708a.407.407,0,0,1,0,.576.419.419,0,0,1-.576,0l-1.708-1.707A.408.408,0,0,1,299.825,423.173Zm2.562-.854a.406.406,0,0,1,.576,0l.851.851a.429.429,0,0,1,0,.58l-.026.026a.406.406,0,0,1-.546-.026l-.854-.854A.406.406,0,0,1,302.387,422.319Zm1.549-2.274v.853a1.085,1.085,0,0,1-.008.139,3.411,3.411,0,0,0-5.65,3.236,2.667,2.667,0,0,0-.447.32L295.02,427.4a.407.407,0,1,1-.575-.576l1.707-1.708a.8.8,0,0,0-1.132-1.131l-1.707,1.708a.407.407,0,0,1-.576,0,.406.406,0,0,1,0-.576l1.708-1.707a.8.8,0,0,0-1.132-1.131l-1.708,1.707a.407.407,0,0,1-.576-.576l4.236-4.236a1.074,1.074,0,0,1,.762-.318h0a1.075,1.075,0,0,1,.763.318l1.2,1.2a2.008,2.008,0,0,0,2.9-2.776l-1.883-1.883h.6a.8.8,0,0,0,.566-.235l1.628-1.629,4.048,3.992-1.673,1.625A.8.8,0,0,0,303.936,420.046Zm-13.508-.579-1.677-1.622,4.045-3.99,1.628,1.629a.806.806,0,0,0,.566.235h1.761l2.953,2.954a.407.407,0,1,1-.576.576l-1.2-1.205a2.688,2.688,0,0,0-3.628-.152l-1.143-1.143a.8.8,0,0,0-1.13,1.132l1.136,1.136-2.334,2.335a2.086,2.086,0,0,1-.154-.8l0-.2C290.679,419.965,290.682,419.711,290.428,419.467Z"
                      transform="translate(-247.8 -232.83)"/>
            </g>
        </svg>


        <svg id="map" xmlns="http://www.w3.org/2000/svg" xmlns:xlink="http://www.w3.org/1999/xlink" width="16"
             height="16" viewBox="0 0 16 16">
            <defs>
                <style>.a{fill:#282830;}.b{clip-path:url(#a);}</style>
                <clipPath id="a">
                    <rect class="a" width="16" height="16" transform="translate(36 291)"/>
                </clipPath>
            </defs>
            <g class="b" transform="translate(-36 -291)">
                <g transform="translate(37.498 291)">
                    <g transform="translate(0 0)">
                        <path class="a"
                              d="M12.891,1.826A6.5,6.5,0,0,0,1.9,5.867a6.563,6.563,0,0,0,.085,1.855,2.172,2.172,0,0,0,.046.218,6.578,6.578,0,0,0,.433,1.279,17.68,17.68,0,0,0,5.206,6.527,1.1,1.1,0,0,0,1.406,0,17.7,17.7,0,0,0,5.206-6.527,6.367,6.367,0,0,0,.433-1.279,2.174,2.174,0,0,0,.046-.218,6.679,6.679,0,0,0,.114-1.22A6.451,6.451,0,0,0,12.891,1.826Zm.716,5.688c0,.01,0,.016,0,.026s-.013.062-.029.133V7.68a5.328,5.328,0,0,1-.358,1.058.055.055,0,0,0-.007.016,16.5,16.5,0,0,1-4.832,6.056A16.477,16.477,0,0,1,3.546,8.754a.055.055,0,0,1-.007-.016A5.259,5.259,0,0,1,3.182,7.68V7.673c-.016-.072-.026-.117-.029-.133s0-.016,0-.026a5.174,5.174,0,0,1-.081-1.536A5.331,5.331,0,0,1,13.7,6.5,5.28,5.28,0,0,1,13.607,7.514Z"
                              transform="translate(-1.873 0)"/>
                    </g>
                    <g transform="translate(3.04 3.105)">
                        <path class="a"
                              d="M9.135,3.881a3.462,3.462,0,0,0,0,6.924.586.586,0,0,0,0-1.171,2.294,2.294,0,1,1,1.741-.8.586.586,0,1,0,.892.761A3.462,3.462,0,0,0,9.135,3.881Z"
                              transform="translate(-5.673 -3.881)"/>
                    </g>
                </g>
            </g>
        </svg>

        <svg id="mapb" xmlns="http://www.w3.org/2000/svg" xmlns:xlink="http://www.w3.org/1999/xlink" width="21"
             height="21" viewBox="0 0 21 21">
            <defs>
                <clipPath id="clip-path">
                    <rect id="Rectangle_3596" data-name="Rectangle 3596" width="21" height="21"
                          transform="translate(10 177.5)"/>
                </clipPath>
            </defs>
            <g id="Mask_Group_884" data-name="Mask Group 884" transform="translate(-10 -177.5)"
               clip-path="url(#clip-path)">
                <path id="location-point"
                      d="M18.842,4.69A8.882,8.882,0,1,0,6.281,17.251L11.8,22.778a1.047,1.047,0,0,0,1.486,0L18.842,17.2a8.845,8.845,0,0,0,0-12.509ZM17.346,15.7l-4.784,4.8L7.778,15.7a6.762,6.762,0,1,1,9.568,0ZM9.421,7.757A4.515,4.515,0,1,0,17.126,11a4.438,4.438,0,0,0-1.319-3.193,4.5,4.5,0,0,0-6.385-.052Zm4.91,4.9a1.008,1.008,0,1,0-.052,0Z"
                      transform="translate(7.944 175.412)"/>
            </g>
        </svg>

        <svg id="searchCategory" xmlns="http://www.w3.org/2000/svg" xmlns:xlink="http://www.w3.org/1999/xlink"
             width="21" height="21"
             viewBox="0 0 21 21">
            <defs>
                <style>.a{fill:#282830;}.b{clip-path:url(#a);}</style>
                <clipPath id="a">
                    <rect class="a" width="21" height="21" transform="translate(108 1694)"/>
                </clipPath>
            </defs>
            <g class="b" transform="translate(-108 -1694)">
                <path class="a"
                      d="M12.273,15.351a5.619,5.619,0,1,1,5.619-5.619A5.626,5.626,0,0,1,12.273,15.351Zm0-9.366a3.746,3.746,0,1,0,3.746,3.746A3.75,3.75,0,0,0,12.273,5.985ZM5.062,17.739a.937.937,0,0,1-.653-1.608l1.733-1.686a.937.937,0,0,1,1.306,1.343L5.715,17.474A.934.934,0,0,1,5.062,17.739Zm9.131-8.008a1.922,1.922,0,0,0-1.92-1.92.937.937,0,0,0,0,1.873.047.047,0,0,1,.047.047.937.937,0,1,0,1.873,0Z"
                      transform="translate(110.877 1694.988)"/>
                <path class="a"
                      d="M9.918,18.466a.9.9,0,0,0-.895-.895H-.105A.9.9,0,0,0-1,18.466a.9.9,0,0,0,.895.895H9.023A.9.9,0,0,0,9.918,18.466Z"
                      transform="translate(109 1679.045)"/>
                <path class="a"
                      d="M8.009,18.466a.9.9,0,0,0-.895-.895H-.105A.9.9,0,0,0-1,18.466a.9.9,0,0,0,.895.895H7.114A.9.9,0,0,0,8.009,18.466Z"
                      transform="translate(109 1682.864)"/>
                <path class="a"
                      d="M6.1,18.466a.9.9,0,0,0-.895-.895H-.105A.9.9,0,0,0-1,18.466a.9.9,0,0,0,.895.895H5.2A.9.9,0,0,0,6.1,18.466Z"
                      transform="translate(109 1686.682)"/>
            </g>
        </svg>

        <svg id="inputSearch" xmlns="http://www.w3.org/2000/svg" xmlns:xlink="http://www.w3.org/1999/xlink" width="17"
             height="17" viewBox="0 0 17 17">
            <defs>
                <style>.a{fill:#282830;}.b{opacity:0.4;clip-path:url(#a);}</style>
                <clipPath id="a">
                    <rect class="a" width="17" height="17"/>
                </clipPath>
            </defs>
            <g class="b">
                <g transform="translate(0.007)">
                    <path class="a"
                          d="M7.006,14a7,7,0,1,1,7-7,7.008,7.008,0,0,1-7,7Zm0-12.674A5.673,5.673,0,1,0,12.68,7,5.68,5.68,0,0,0,7.006,1.327ZM16.8,16.806a.664.664,0,0,0,0-.938L13.829,12.9a.664.664,0,0,0-.938.938l2.969,2.969a.664.664,0,0,0,.938,0Z"
                          transform="translate(-0.006)"/>
                    <path class="a"
                          d="M15.305,15.311a.664.664,0,0,0,0-.938L12.336,11.4a.664.664,0,1,0-.938.938l2.969,2.969a.664.664,0,0,0,.938,0Z"
                          transform="translate(1.487 1.495)"/>
                </g>
            </g>
        </svg>


        <svg id="merchantClose" xmlns="http://www.w3.org/2000/svg" xmlns:xlink="http://www.w3.org/1999/xlink" width="21"
             height="21" viewBox="0 0 21 21">
            <defs>
                <style>.a{fill:#f01c41;}.b{clip-path:url(#a);}</style>
                <clipPath id="a">
                    <rect class="a" width="21" height="21" transform="translate(108 1694)"/>
                </clipPath>
            </defs>
            <g class="b" transform="translate(-108 -1694)">
                <path class="a"
                      d="M19.918,18.466a.9.9,0,0,0-.895-.895H-.105A.9.9,0,0,0-1,18.466a.9.9,0,0,0,.895.895H19.023A.9.9,0,0,0,19.918,18.466Z"
                      transform="translate(124.828 1684.754) rotate(45)"/>
                <path class="a"
                      d="M20.918.895a.9.9,0,0,1-.895.895H.895A.895.895,0,1,1,.895,0H20.023A.9.9,0,0,1,20.918.895Z"
                      transform="translate(126.487 1697.737) rotate(135)"/>
            </g>
        </svg>

        <svg id="zoom" xmlns="http://www.w3.org/2000/svg" width="24" height="24.001" viewBox="0 0 24 24.001">
            <defs>
                <style>.a,.b{fill:#c5c9d2;}.a{stroke:#707070;opacity:0;}.c{stroke:none;}.d{fill:none;}</style>
            </defs>
            <g transform="translate(-1033 -783.999)">
                <g class="a" transform="translate(1033 784)">
                    <rect class="c" width="24" height="24"/>
                    <rect class="d" x="0.5" y="0.5" width="23" height="23"/>
                </g>
                <path class="b"
                      d="M5745-3187h-8a1,1,0,0,1-1-1,1,1,0,0,1,1-1h7v-7a1,1,0,0,1,1-1,1,1,0,0,1,1,1v8a1,1,0,0,1-1,1Zm-22,0a1,1,0,0,1-1-1v-8a1,1,0,0,1,1-1,1,1,0,0,1,1,1v7h7a1,1,0,0,1,1,1,1,1,0,0,1-1,1Zm21-15v-7h-7a1,1,0,0,1-1-1,1,1,0,0,1,1-1h8a1,1,0,0,1,1,1v8a1,1,0,0,1-1,1A1,1,0,0,1,5744-3202Zm-22,0v-8a1,1,0,0,1,1-1h8a1,1,0,0,1,1,1,1,1,0,0,1-1,1h-7v7a1,1,0,0,1-1,1A1,1,0,0,1,5722-3202Z"
                      transform="translate(-4689 3995)"/>
            </g>
        </svg>

        <svg id="profile" xmlns="http://www.w3.org/2000/svg" xmlns:xlink="http://www.w3.org/1999/xlink" width="21"
             height="21" viewBox="0 0 21 21">
            <defs>
                <style>.a{fill:#282830;}.b{clip-path:url(#a);}</style>
                <clipPath id="a">
                    <rect class="a" width="21" height="21" transform="translate(175 1694)"/>
                </clipPath>
            </defs>
            <g class="b" transform="translate(-175 -1694)">
                <g transform="translate(177.42 1694)">
                    <g transform="translate(0 12.715)">
                        <path class="a"
                              d="M17.875,21.605a.82.82,0,0,1-.82-.82,5.831,5.831,0,0,0-5.824-5.824H10a5.831,5.831,0,0,0-5.824,5.824.82.82,0,0,1-1.641,0A7.473,7.473,0,0,1,10,13.32h1.23A7.473,7.473,0,0,1,18.7,20.785.82.82,0,0,1,17.875,21.605Z"
                              transform="translate(-2.535 -13.32)"/>
                    </g>
                    <g transform="translate(2.461)">
                        <path class="a"
                              d="M10.65,11.074a5.537,5.537,0,1,1,5.537-5.537A5.543,5.543,0,0,1,10.65,11.074Zm0-9.434a3.9,3.9,0,1,0,3.9,3.9A3.9,3.9,0,0,0,10.65,1.641Z"
                              transform="translate(-5.113)"/>
                    </g>
                </g>
            </g>
        </svg>
        <svg id="phone" xmlns="http://www.w3.org/2000/svg" xmlns:xlink="http://www.w3.org/1999/xlink" width="24"
             height="24" viewBox="0 0 24 24">
            <defs>
                <style>.a{fill:currentColor;}.b{clip-path:url(#a);}</style>
                <clipPath id="a">
                    <rect class="a" width="24" height="24" transform="translate(32 1068)"/>
                </clipPath>
            </defs>
            <g class="b" transform="translate(-32 -1068)">
                <path class="a"
                      d="M15.51,24C5.894,23.928-5.371,9.916,2.861,1.677c.292-.3.6-.583.92-.85a3.495,3.495,0,0,1,4.723.2l.012.012L10.1,2.688A3.438,3.438,0,0,1,8.972,8.271,7.57,7.57,0,0,0,7.72,8.89c-.873.89-1.429,2.335,1.837,5.607,1.06,1.062,2.63,2.473,4.019,2.473a2.22,2.22,0,0,0,1.581-.729,7.283,7.283,0,0,0,.579-1.2,3.431,3.431,0,0,1,5.587-1.151l1.629,1.576.012.011a3.5,3.5,0,0,1,.209,4.716c-.249.3-.514.589-.79.865A9.51,9.51,0,0,1,15.51,24ZM6.037,1.877a1.632,1.632,0,0,0-1.051.386c-.273.229-.538.474-.789.729C-.192,7.45,2.22,13.538,6.437,17.707c4.178,4.157,10.236,6.43,14.619,2.028.236-.236.464-.486.677-.741a1.618,1.618,0,0,0-.091-2.186l-1.628-1.575L20,15.221a1.544,1.544,0,0,0-2.526.519,7.224,7.224,0,0,1-.965,1.8,4.07,4.07,0,0,1-2.935,1.307c-2.063,0-3.941-1.616-5.346-3.023-2.132-2.046-4.6-5.534-1.814-8.279A7.444,7.444,0,0,1,8.264,6.536a1.551,1.551,0,0,0,.5-2.53l-.012-.012L7.172,2.347a1.606,1.606,0,0,0-1.135-.47Zm17.015,9.328a.937.937,0,0,1-.932-.853,9.355,9.355,0,0,0-8.481-8.481A.937.937,0,0,1,13.806,0a11.31,11.31,0,0,1,10.18,10.18.937.937,0,0,1-.849,1.018q-.043,0-.085,0Zm-7.3,0a.937.937,0,0,0,.592-1.186A3.792,3.792,0,0,0,14.034,7.65a.937.937,0,0,0-.625,1.767,1.9,1.9,0,0,1,1.154,1.194.936.936,0,0,0,1.186.592Zm3.682-.008a.937.937,0,0,0,.8-1.061,7.551,7.551,0,0,0-6.372-6.372.937.937,0,0,0-.265,1.856A5.666,5.666,0,0,1,18.371,10.4a.937.937,0,0,0,1.061.8Z"
                      transform="translate(32 1068)"/>
            </g>
        </svg>

        <svg id="download" xmlns="http://www.w3.org/2000/svg" width="24" height="24" viewBox="0 0 24 24">
            <path id="Path_8102" data-name="Path 8102"
                  d="M24.8,16.4a1.2,1.2,0,0,0-1.2,1.2v4.8a1.2,1.2,0,0,1-1.2,1.2H5.6a1.2,1.2,0,0,1-1.2-1.2V17.6a1.2,1.2,0,0,0-2.4,0v4.8A3.6,3.6,0,0,0,5.6,26H22.4A3.6,3.6,0,0,0,26,22.4V17.6a1.2,1.2,0,0,0-1.2-1.2ZM13.148,18.452a1.2,1.2,0,0,0,.4.252,1.128,1.128,0,0,0,.912,0,1.2,1.2,0,0,0,.4-.252l4.8-4.8a1.2,1.2,0,0,0-1.7-1.7L15.2,14.708V3.2a1.2,1.2,0,0,0-2.4,0V14.708l-2.748-2.76a1.2,1.2,0,0,0-1.7,1.7Z"
                  transform="translate(-2 -2)" fill="currentColor"/>
        </svg>

    </defs>
</svg>