<svg width="34" height="34" viewBox="0 0 34 34" fill="none" xmlns="http://www.w3.org/2000/svg">
<path d="M22.067 9.04688H11.933C11.1554 9.04793 10.41 9.35728 9.86022 9.9071C9.31041 10.4569 9.00106 11.2023 9 11.9799V22.1139C9.00079 22.8916 9.31003 23.6373 9.85987 24.1873C10.4097 24.7373 11.1553 25.0468 11.933 25.0479H22.067C22.8449 25.0471 23.5907 24.7377 24.1408 24.1876C24.6908 23.6376 25.0002 22.8918 25.001 22.1139V11.9799C24.9999 11.2021 24.6905 10.4566 24.1404 9.90675C23.5904 9.3569 22.8447 9.04767 22.067 9.04688ZM17 22.3149C15.9584 22.3147 14.9402 22.0056 14.0742 21.4268C13.2082 20.848 12.5333 20.0254 12.1347 19.063C11.7362 18.1006 11.632 17.0417 11.8353 16.0201C12.0385 14.9985 12.5401 14.0601 13.2767 13.3235C14.0132 12.587 14.9516 12.0854 15.9732 11.8821C16.9948 11.6789 18.0538 11.7831 19.0161 12.1816C19.9785 12.5801 20.8011 13.2551 21.3799 14.1211C21.9588 14.9871 22.2678 16.0052 22.268 17.0469C22.2667 18.4436 21.7112 19.7828 20.7236 20.7705C19.7359 21.7581 18.3968 22.3136 17 22.3149V22.3149ZM22.437 12.8689C22.1906 12.8689 21.9497 12.7958 21.7448 12.6589C21.5399 12.522 21.3802 12.3274 21.2858 12.0997C21.1915 11.872 21.1669 11.6215 21.2149 11.3798C21.263 11.1381 21.3817 10.9161 21.5559 10.7418C21.7302 10.5676 21.9522 10.4489 22.1939 10.4008C22.4356 10.3527 22.6861 10.3774 22.9138 10.4717C23.1415 10.566 23.3361 10.7257 23.473 10.9306C23.6099 11.1355 23.683 11.3764 23.683 11.6229C23.6825 11.9532 23.551 12.2698 23.3175 12.5033C23.0839 12.7369 22.7673 12.8683 22.437 12.8689V12.8689Z" fill="#C4C4C4"/>
<path d="M17.0001 14.0059C16.3982 14.0049 15.8096 14.1825 15.3086 14.5162C14.8077 14.8499 14.417 15.3247 14.186 15.8805C13.955 16.4363 13.8941 17.0482 14.011 17.6386C14.1279 18.2291 14.4174 18.7716 14.8427 19.1975C15.268 19.6234 15.8101 19.9135 16.4004 20.0312C16.9907 20.1488 17.6027 20.0887 18.1588 19.8585C18.7149 19.6282 19.1902 19.2382 19.5246 18.7377C19.859 18.2372 20.0373 17.6488 20.0371 17.0469C20.0361 16.2414 19.7159 15.4691 19.1467 14.8991C18.5775 14.3292 17.8056 14.008 17.0001 14.0059Z" fill="#C4C4C4"/>
<path d="M17 0C13.6377 0 10.3509 0.997033 7.55531 2.86502C4.75968 4.733 2.58075 7.38804 1.29406 10.4944C0.00736582 13.6007 -0.329291 17.0189 0.326658 20.3165C0.982607 23.6142 2.6017 26.6433 4.97919 29.0208C7.35668 31.3983 10.3858 33.0174 13.6835 33.6734C16.9811 34.3293 20.3993 33.9926 23.5056 32.706C26.612 31.4193 29.267 29.2403 31.135 26.4447C33.003 23.6491 34 20.3623 34 17C34 12.4913 32.2089 8.1673 29.0208 4.97918C25.8327 1.79107 21.5087 0 17 0V0ZM27.226 22.113C27.2244 23.4808 26.6804 24.7921 25.7132 25.7592C24.7461 26.7264 23.4348 27.2704 22.067 27.272H11.933C10.5652 27.2704 9.25395 26.7264 8.2868 25.7592C7.31964 24.7921 6.7756 23.4808 6.77401 22.113V11.979C6.7756 10.6112 7.31964 9.29995 8.2868 8.33279C9.25395 7.36563 10.5652 6.82159 11.933 6.82H22.067C23.4348 6.82159 24.7461 7.36563 25.7132 8.33279C26.6804 9.29995 27.2244 10.6112 27.226 11.979V22.113Z" fill="#C4C4C4"/>
</svg>
