<svg id="mapLarge" xmlns="http://www.w3.org/2000/svg" xmlns:xlink="http://www.w3.org/1999/xlink" width="24" height="24"
     viewBox="0 0 24 24">
    <defs>
        <style>.a{fill:#f01c41;}.b{clip-path:url(#a);}</style>
        <clipPath id="a">
            <rect class="a" width="24" height="24" transform="translate(36 291)"/>
        </clipPath>
    </defs>
    <g class="b" transform="translate(-36 -291)">
        <g transform="translate(38.247 291)">
            <g transform="translate(0 0)">
                <path class="a"
                      d="M18.4,2.739A9.752,9.752,0,0,0,1.918,8.8a9.844,9.844,0,0,0,.127,2.782,3.259,3.259,0,0,0,.068.327,9.866,9.866,0,0,0,.649,1.918,26.519,26.519,0,0,0,7.809,9.791,1.65,1.65,0,0,0,2.109,0c4.661-3.871,6.819-7.458,7.809-9.791a9.55,9.55,0,0,0,.649-1.918,3.262,3.262,0,0,0,.068-.327,10.018,10.018,0,0,0,.171-1.83A9.676,9.676,0,0,0,18.4,2.739Zm1.074,8.532c0,.015,0,.024,0,.039s-.02.093-.044.2v.01a7.992,7.992,0,0,1-.537,1.586.083.083,0,0,0-.01.024,24.755,24.755,0,0,1-7.248,9.083A24.716,24.716,0,0,1,4.383,13.13a.082.082,0,0,1-.01-.024,7.888,7.888,0,0,1-.537-1.586v-.01c-.024-.107-.039-.176-.044-.2s0-.024,0-.039a7.761,7.761,0,0,1-.122-2.3,8,8,0,0,1,15.956.786A7.92,7.92,0,0,1,19.475,11.271Z"
                      transform="translate(-1.873 0)"/>
            </g>
            <g transform="translate(4.56 4.657)">
                <path class="a"
                      d="M10.866,3.881a5.193,5.193,0,0,0,0,10.387.879.879,0,0,0,0-1.757A3.441,3.441,0,1,1,13.477,11.3a.879.879,0,1,0,1.337,1.142,5.193,5.193,0,0,0-3.949-8.566Z"
                      transform="translate(-5.673 -3.881)"/>
            </g>
        </g>
    </g>
</svg>