<svg id="phone" xmlns="http://www.w3.org/2000/svg" xmlns:xlink="http://www.w3.org/1999/xlink" width="24"
     height="24" viewBox="0 0 24 24">
    <defs>
        <style>.a{fill:#f01c41;}.b{clip-path:url(#a);}</style>
        <clipPath id="a">
            <rect class="a" width="24" height="24" transform="translate(32 1068)"/>
        </clipPath>
    </defs>
    <g class="b" transform="translate(-32 -1068)">
        <path class="a"
              d="M15.51,24C5.894,23.928-5.371,9.916,2.861,1.677c.292-.3.6-.583.92-.85a3.495,3.495,0,0,1,4.723.2l.012.012L10.1,2.688A3.438,3.438,0,0,1,8.972,8.271,7.57,7.57,0,0,0,7.72,8.89c-.873.89-1.429,2.335,1.837,5.607,1.06,1.062,2.63,2.473,4.019,2.473a2.22,2.22,0,0,0,1.581-.729,7.283,7.283,0,0,0,.579-1.2,3.431,3.431,0,0,1,5.587-1.151l1.629,1.576.012.011a3.5,3.5,0,0,1,.209,4.716c-.249.3-.514.589-.79.865A9.51,9.51,0,0,1,15.51,24ZM6.037,1.877a1.632,1.632,0,0,0-1.051.386c-.273.229-.538.474-.789.729C-.192,7.45,2.22,13.538,6.437,17.707c4.178,4.157,10.236,6.43,14.619,2.028.236-.236.464-.486.677-.741a1.618,1.618,0,0,0-.091-2.186l-1.628-1.575L20,15.221a1.544,1.544,0,0,0-2.526.519,7.224,7.224,0,0,1-.965,1.8,4.07,4.07,0,0,1-2.935,1.307c-2.063,0-3.941-1.616-5.346-3.023-2.132-2.046-4.6-5.534-1.814-8.279A7.444,7.444,0,0,1,8.264,6.536a1.551,1.551,0,0,0,.5-2.53l-.012-.012L7.172,2.347a1.606,1.606,0,0,0-1.135-.47Zm17.015,9.328a.937.937,0,0,1-.932-.853,9.355,9.355,0,0,0-8.481-8.481A.937.937,0,0,1,13.806,0a11.31,11.31,0,0,1,10.18,10.18.937.937,0,0,1-.849,1.018q-.043,0-.085,0Zm-7.3,0a.937.937,0,0,0,.592-1.186A3.792,3.792,0,0,0,14.034,7.65a.937.937,0,0,0-.625,1.767,1.9,1.9,0,0,1,1.154,1.194.936.936,0,0,0,1.186.592Zm3.682-.008a.937.937,0,0,0,.8-1.061,7.551,7.551,0,0,0-6.372-6.372.937.937,0,0,0-.265,1.856A5.666,5.666,0,0,1,18.371,10.4a.937.937,0,0,0,1.061.8Z"
              transform="translate(32 1068)"/>
    </g>
</svg>