<svg xmlns="http://www.w3.org/2000/svg" width="168" height="54" viewBox="0 0 168 54">
  <g id="Group_7891" data-name="Group 7891" transform="translate(-578 -797)">
    <rect id="bg" width="168" height="54" rx="16" transform="translate(578 797)" fill="#fff"/>
    <g id="google-play.d2551070" transform="translate(581.713 800.66)">
      <path id="Path_3462" data-name="Path 3462" d="M154.359,46.34H6.216A5.857,5.857,0,0,1,.287,40.59V6.09A5.85,5.85,0,0,1,6.216.34H154.359a5.851,5.851,0,0,1,5.928,5.75v34.5A5.859,5.859,0,0,1,154.359,46.34Z" fill-rule="evenodd" opacity="0"/>
      <path id="Path_3463" data-name="Path 3463" d="M84.576,15.557a3.7,3.7,0,0,1-3.765-3.72A3.552,3.552,0,0,1,81.895,9.2,3.629,3.629,0,0,1,84.573,8.12,3.678,3.678,0,0,1,87.255,9.2a3.748,3.748,0,0,1,0,5.271A3.609,3.609,0,0,1,84.576,15.557Zm-31.792,0a3.776,3.776,0,0,1-2.693-1.067,3.537,3.537,0,0,1-1.11-2.65,3.537,3.537,0,0,1,1.11-2.65,3.728,3.728,0,0,1,2.693-1.067,3.838,3.838,0,0,1,1.5.3,3.04,3.04,0,0,1,1.145.8l.071.083-.8.763-.083-.095A2.294,2.294,0,0,0,52.772,9.2a2.594,2.594,0,0,0-1.845.734,2.53,2.53,0,0,0-.777,1.91,2.53,2.53,0,0,0,.777,1.91,2.75,2.75,0,0,0,3.741,0,1.964,1.964,0,0,0,.542-1.2H52.651V11.484h3.656l.015.1a3.833,3.833,0,0,1,.053.539,3.183,3.183,0,0,1-.913,2.38A3.609,3.609,0,0,1,52.784,15.557ZM95.055,15.4H93.927l-3.453-5.383.029.969V15.4H89.377V8.275h1.286l.035.054,3.247,5.07-.029-.967V8.275h1.139V15.4Zm-18.95,0H74.963V9.348H72.982V8.275h5.1V9.348H76.1V15.4Zm-4.053,0H70.913V8.275h1.139Zm-6.4,0H64.511V9.348H62.53V8.275h5.1V9.348H65.65Zm-3.841-.012H57.44V8.275h4.368V9.348H58.583V11.3h2.911v1.061H58.583v1.956h3.226ZM82.73,13.739a2.555,2.555,0,0,0,1.846.746,2.489,2.489,0,0,0,1.845-.746,2.546,2.546,0,0,0,.754-1.9,2.557,2.557,0,0,0-2.6-2.644,2.478,2.478,0,0,0-1.843.746,2.545,2.545,0,0,0-.753,1.9A2.548,2.548,0,0,0,82.73,13.739Z" fill="#282830"/>
      <path id="Path_3464" data-name="Path 3464" d="M80.705,25.359a4.895,4.895,0,1,0,5.036,4.892A4.882,4.882,0,0,0,80.705,25.359Zm0,7.846a2.969,2.969,0,1,1,2.832-2.965A2.865,2.865,0,0,1,80.705,33.205ZM69.717,25.359a4.895,4.895,0,1,0,5.036,4.892A4.882,4.882,0,0,0,69.717,25.359Zm0,7.846a2.969,2.969,0,1,1,2.832-2.965A2.865,2.865,0,0,1,69.717,33.205ZM56.643,26.853v2.071h5.1a4.312,4.312,0,0,1-1.154,2.607,5.272,5.272,0,0,1-3.935,1.52A5.521,5.521,0,1,1,60.5,23.492L62,22.024a7.511,7.511,0,0,0-5.336-2.1,7.808,7.808,0,0,0-7.909,7.591,7.8,7.8,0,0,0,7.909,7.591,7.229,7.229,0,0,0,5.442-2.134,6.767,6.767,0,0,0,1.848-4.855,6.24,6.24,0,0,0-.118-1.291h-7.2S56.643,26.853,56.643,26.853Zm53.479,1.612a4.645,4.645,0,0,0-4.3-3.117,4.7,4.7,0,0,0-4.733,4.892,4.845,4.845,0,0,0,4.983,4.892,5.014,5.014,0,0,0,4.183-2.171l-1.7-1.113a2.871,2.871,0,0,1-2.466,1.354,2.57,2.57,0,0,1-2.44-1.483l6.714-2.71S110.122,28.465,110.122,28.465ZM103.276,30.1a2.716,2.716,0,0,1,2.622-2.851,1.946,1.946,0,0,1,1.864,1.035Zm-5.454,4.74h2.2V20.466h-2.2ZM94.2,26.446h-.08a3.52,3.52,0,0,0-2.649-1.1,4.889,4.889,0,0,0,0,9.776,3.509,3.509,0,0,0,2.649-1.113h.08v.7c0,1.867-1.024,2.874-2.676,2.874a2.778,2.778,0,0,1-2.531-1.738l-1.916.78a4.79,4.79,0,0,0,4.445,2.888c2.584,0,4.774-1.483,4.774-5.1V25.64H94.213v.806ZM91.67,33.205a2.969,2.969,0,0,1,0-5.928,2.778,2.778,0,0,1,2.675,2.977A2.744,2.744,0,0,1,91.67,33.205Zm28.775-12.739h-5.272V34.84h2.205V29.4h3.07a4.625,4.625,0,0,0,4.839-4.459A4.63,4.63,0,0,0,120.445,20.466Zm.065,6.923h-3.135V22.457h3.135a2.469,2.469,0,1,1,0,4.933Zm13.613-2.056a4.172,4.172,0,0,0-3.935,2.2l1.954.792a2.4,2.4,0,0,1,4.33.792v.152a5.039,5.039,0,0,0-2.3-.551c-2.11,0-4.25,1.124-4.25,3.232a3.378,3.378,0,0,0,3.658,3.169,3.126,3.126,0,0,0,2.806-1.405h.079v1.113h2.125V29.317C138.594,26.753,136.64,25.333,134.123,25.333Zm-.277,7.872c-.721,0-1.73-.344-1.73-1.227,0-1.113,1.259-1.534,2.334-1.534a3.905,3.905,0,0,1,2.007.485A2.63,2.63,0,0,1,133.846,33.205Zm12.5-7.565-2.531,6.235h-.08l-2.622-6.235h-2.373l3.936,8.715L140.434,39.2h2.3l6.054-13.559ZM126.5,34.84h2.2V20.466h-2.2Z" fill="#282830" fill-rule="evenodd"/>
      <path id="Path_3465" data-name="Path 3465" d="M12.6,9a2.291,2.291,0,0,0-.539,1.623V36.056a2.183,2.183,0,0,0,.55,1.609l.091.077L27.329,23.495v-.318L12.694,8.926Z" fill="#00c6ff" fill-rule="evenodd"/>
      <path id="Path_3466" data-name="Path 3466" d="M32.194,28.258l-4.877-4.752v-.333l4.877-4.752.106.063L38.07,21.68c1.651.906,1.651,2.4,0,3.321L32.3,28.2Z" fill="#ffcf00" fill-rule="evenodd"/>
      <path id="Path_3467" data-name="Path 3467" d="M32.3,28.2,27.317,23.34,12.6,37.676a1.97,1.97,0,0,0,2.452.077Z" fill="#f83648" fill-rule="evenodd"/>
      <path id="Path_3468" data-name="Path 3468" d="M32.3,18.485,15.055,8.941a1.951,1.951,0,0,0-2.452.077L27.317,23.34Z" fill="#00f076" fill-rule="evenodd"/>
      <path id="Path_3469" data-name="Path 3469" d="M32.194,28.092,15.066,37.573a1.984,1.984,0,0,1-2.361.011l-.091.089.091.077a1.989,1.989,0,0,0,2.361-.012L32.312,28.2Z" fill-rule="evenodd" opacity="0.2"/>
      <path id="Path_3470" data-name="Path 3470" d="M38.069,24.834l-5.89,3.258.106.1L38.055,25a2.016,2.016,0,0,0,1.233-1.66A2.077,2.077,0,0,1,38.069,24.834Z" fill-rule="evenodd" opacity="0.12"/>
      <path id="Path_3471" data-name="Path 3471" d="M15.055,9.107,38.07,21.846A2.123,2.123,0,0,1,39.3,23.34a2.016,2.016,0,0,0-1.233-1.66L15.055,8.941c-1.651-.921-2.991-.152-2.991,1.686v.166C12.064,8.952,13.4,8.2,15.055,9.107Z" fill="#fff" fill-rule="evenodd" opacity="0.25"/>
    </g>
  </g>
</svg>
