<svg xmlns="http://www.w3.org/2000/svg" width="148" height="54" viewBox="0 0 148 54">
  <g id="Group_7890" data-name="Group 7890" transform="translate(-578 -797)">
    <rect id="bg" width="148" height="54" rx="16" transform="translate(578 797)" fill="#fff"/>
    <g id="app-store.330d0a36" transform="translate(582 801)">
      <rect id="Rectangle_3026" data-name="Rectangle 3026" width="140" height="46" rx="6" fill="#282830" opacity="0"/>
      <path id="Path_3472" data-name="Path 3472" d="M28.1,22.258a5.393,5.393,0,0,1,.745-2.659,5.619,5.619,0,0,1,1.979-1.982,5.794,5.794,0,0,0-2.011-1.733,6.01,6.01,0,0,0-2.6-.678c-1.941-.2-3.822,1.123-4.811,1.123-1.008,0-2.531-1.1-4.17-1.071a6.293,6.293,0,0,0-3,.866,6.034,6.034,0,0,0-2.169,2.183c-2.235,3.742-.568,9.242,1.573,12.267,1.071,1.481,2.323,3.136,3.961,3.077,1.6-.064,2.2-.989,4.136-.989,1.917,0,2.479.989,4.15.951,1.72-.027,2.8-1.488,3.837-2.983a12.092,12.092,0,0,0,1.755-3.456,5.488,5.488,0,0,1-2.452-1.967A5.22,5.22,0,0,1,28.1,22.258Z" fill="#282830"/>
      <path id="Path_3473" data-name="Path 3473" d="M24.943,13.218a5.328,5.328,0,0,0,1.288-3.9,5.8,5.8,0,0,0-3.707,1.855,5.144,5.144,0,0,0-1.047,1.751,5.023,5.023,0,0,0-.274,2.005,4.871,4.871,0,0,0,2.073-.439A4.716,4.716,0,0,0,24.943,13.218Z" fill="#282830"/>
      <path id="Path_3474" data-name="Path 3474" d="M48.361,29.9h-5.47l-1.314,3.751H39.261l5.181-13.878h2.407L52.03,33.653H49.673Zm-4.9-1.731h4.336l-2.137-6.088H45.6Z" fill="#282830"/>
      <path id="Path_3475" data-name="Path 3475" d="M63.219,28.594c0,3.144-1.74,5.165-4.366,5.165a3.646,3.646,0,0,1-1.909-.428,3.49,3.49,0,0,1-1.383-1.343h-.05V37H53.363V23.535h2.079v1.683h.04a3.656,3.656,0,0,1,1.41-1.339,3.813,3.813,0,0,1,1.921-.449C61.468,23.429,63.219,25.459,63.219,28.594Zm-2.207,0c0-2.049-1.095-3.4-2.765-3.4-1.641,0-2.745,1.375-2.745,3.4,0,2.039,1.1,3.4,2.745,3.4C59.917,32,61.012,30.661,61.012,28.594Z" fill="#282830"/>
      <path id="Path_3476" data-name="Path 3476" d="M74.734,28.594c0,3.144-1.74,5.165-4.366,5.165a3.647,3.647,0,0,1-1.909-.428,3.491,3.491,0,0,1-1.383-1.343h-.05V37H64.879V23.535h2.079v1.683H67a3.656,3.656,0,0,1,1.41-1.339,3.813,3.813,0,0,1,1.921-.449C72.984,23.429,74.734,25.459,74.734,28.594Zm-2.207,0c0-2.049-1.095-3.4-2.765-3.4-1.641,0-2.744,1.375-2.744,3.4,0,2.039,1.1,3.4,2.744,3.4C71.432,32,72.527,30.661,72.527,28.594Z" fill="#282830"/>
      <path id="Path_3477" data-name="Path 3477" d="M82.345,29.786c.159,1.376,1.542,2.28,3.431,2.28,1.81,0,3.112-.9,3.112-2.145,0-1.077-.785-1.722-2.645-2.164l-1.86-.433c-2.635-.615-3.858-1.807-3.858-3.741,0-2.394,2.158-4.039,5.222-4.039,3.032,0,5.111,1.645,5.181,4.039H88.76c-.13-1.385-1.314-2.221-3.044-2.221s-2.914.846-2.914,2.077c0,.981.756,1.558,2.606,2l1.581.375c2.944.673,4.168,1.817,4.168,3.847,0,2.6-2.139,4.223-5.54,4.223-3.182,0-5.331-1.588-5.47-4.1Z" fill="#282830"/>
      <path id="Path_3478" data-name="Path 3478" d="M95.792,21.14v2.394h1.989v1.645H95.792v5.578a1.106,1.106,0,0,0,1.273,1.27,6.915,6.915,0,0,0,.706-.048v1.635a6.1,6.1,0,0,1-1.193.1c-2.118,0-2.945-.769-2.945-2.732v-5.8H92.112V23.535h1.521V21.14Z" fill="#282830"/>
      <path id="Path_3479" data-name="Path 3479" d="M98.933,28.594c0-3.184,1.939-5.184,4.962-5.184s4.963,2,4.963,5.184-1.919,5.184-4.963,5.184S98.933,31.787,98.933,28.594Zm7.737,0c0-2.184-1.034-3.473-2.775-3.473s-2.774,1.3-2.774,3.473c0,2.193,1.034,3.472,2.774,3.472S106.67,30.787,106.67,28.594Z" fill="#282830"/>
      <path id="Path_3480" data-name="Path 3480" d="M110.628,23.535h2.049v1.722h.05a2.407,2.407,0,0,1,.922-1.346,2.557,2.557,0,0,1,1.594-.482,3.414,3.414,0,0,1,.736.077v1.943a3.1,3.1,0,0,0-.965-.125,2.235,2.235,0,0,0-.912.156,2.164,2.164,0,0,0-.76.51,2.083,2.083,0,0,0-.472.771,2.041,2.041,0,0,0-.094.891v6h-2.148Z" fill="#282830"/>
      <path id="Path_3481" data-name="Path 3481" d="M125.88,30.681c-.288,1.837-2.138,3.1-4.5,3.1-3.044,0-4.933-1.972-4.933-5.136s1.9-5.232,4.842-5.232c2.895,0,4.715,1.923,4.715,4.991v.712h-7.389v.125a2.561,2.561,0,0,0,.141,1.1,2.609,2.609,0,0,0,.6.947,2.716,2.716,0,0,0,.946.625,2.808,2.808,0,0,0,1.13.193,2.434,2.434,0,0,0,1.452-.324,2.308,2.308,0,0,0,.963-1.1Zm-7.259-3.02h5.23a2.364,2.364,0,0,0-.154-.984,2.437,2.437,0,0,0-.548-.842,2.522,2.522,0,0,0-.852-.559,2.594,2.594,0,0,0-1.012-.183,2.729,2.729,0,0,0-1.02.191,2.66,2.66,0,0,0-.866.556,2.572,2.572,0,0,0-.577.835A2.5,2.5,0,0,0,118.621,27.661Z" fill="#282830"/>
      <path id="Path_3482" data-name="Path 3482" d="M43.189,9.328a3.146,3.146,0,0,1,1.323.193,3.056,3.056,0,0,1,1.11.721,2.932,2.932,0,0,1,.684,1.111,2.858,2.858,0,0,1,.127,1.288A3.009,3.009,0,0,1,43.189,16H40.7V9.328Zm-1.42,5.725h1.3a2.236,2.236,0,0,0,.943-.149,2.173,2.173,0,0,0,.785-.526,2.082,2.082,0,0,0,.474-.8,2.03,2.03,0,0,0,.072-.921,2.035,2.035,0,0,0-.08-.916,2.087,2.087,0,0,0-.476-.8,2.176,2.176,0,0,0-.781-.523,2.241,2.241,0,0,0-.937-.151h-1.3Z" fill="#282830"/>
      <path id="Path_3483" data-name="Path 3483" d="M47.643,13.479a2.31,2.31,0,0,1,.115-.98,2.369,2.369,0,0,1,.515-.851,2.465,2.465,0,0,1,.827-.577,2.543,2.543,0,0,1,1.995,0,2.464,2.464,0,0,1,.827.577,2.366,2.366,0,0,1,.515.851,2.308,2.308,0,0,1,.115.98,2.311,2.311,0,0,1-.113.981,2.369,2.369,0,0,1-.514.852,2.465,2.465,0,0,1-.827.578,2.542,2.542,0,0,1-2,0,2.463,2.463,0,0,1-.827-.578,2.367,2.367,0,0,1-.514-.852A2.308,2.308,0,0,1,47.643,13.479Zm3.852,0c0-1.091-.507-1.729-1.4-1.729s-1.395.638-1.395,1.729.5,1.733,1.395,1.733S51.495,14.574,51.495,13.479Z" fill="#282830"/>
      <path id="Path_3484" data-name="Path 3484" d="M59.075,16H58.01L56.934,12.29h-.081L55.782,16H54.727l-1.434-5.032h1.042l.932,3.84h.077l1.07-3.84H57.4l1.07,3.84h.081l.928-3.84H60.5Z" fill="#282830"/>
      <path id="Path_3485" data-name="Path 3485" d="M61.71,10.964H62.7v.8h.077a1.524,1.524,0,0,1,.628-.688,1.6,1.6,0,0,1,.925-.208,1.745,1.745,0,0,1,.744.108,1.7,1.7,0,0,1,.622.409,1.625,1.625,0,0,1,.377.629,1.584,1.584,0,0,1,.058.725V16H65.1V12.988c0-.809-.363-1.211-1.123-1.211a1.231,1.231,0,0,0-.5.083,1.2,1.2,0,0,0-.421.278,1.146,1.146,0,0,0-.262.423,1.118,1.118,0,0,0-.056.491V16H61.71Z" fill="#282830"/>
      <path id="Path_3486" data-name="Path 3486" d="M67.765,9h1.027v7H67.765Z" fill="#282830"/>
      <path id="Path_3487" data-name="Path 3487" d="M70.22,13.478a2.31,2.31,0,0,1,.115-.98,2.367,2.367,0,0,1,.515-.851,2.464,2.464,0,0,1,.827-.577,2.543,2.543,0,0,1,1.995,0,2.464,2.464,0,0,1,.827.577,2.369,2.369,0,0,1,.515.851,2.311,2.311,0,0,1,.115.98,2.309,2.309,0,0,1-.114.981,2.368,2.368,0,0,1-.515.852,2.465,2.465,0,0,1-.827.578,2.542,2.542,0,0,1-2,0,2.465,2.465,0,0,1-.827-.578,2.368,2.368,0,0,1-.515-.852A2.309,2.309,0,0,1,70.22,13.478Zm3.852,0c0-1.091-.507-1.729-1.4-1.729s-1.395.638-1.395,1.729.5,1.733,1.395,1.733S74.072,14.573,74.072,13.478Z" fill="#282830"/>
      <path id="Path_3488" data-name="Path 3488" d="M76.21,14.574c0-.906.7-1.428,1.935-1.5l1.41-.079v-.434c0-.532-.363-.832-1.065-.832-.573,0-.97.2-1.085.559h-.994c.1-.864.946-1.419,2.126-1.419,1.3,0,2.04.628,2.04,1.691V16h-.989V15.29h-.081a1.73,1.73,0,0,1-.671.6,1.8,1.8,0,0,1-.892.191,1.622,1.622,0,0,1-.648-.066,1.586,1.586,0,0,1-.565-.315,1.525,1.525,0,0,1-.384-.509A1.479,1.479,0,0,1,76.21,14.574Zm3.345-.43v-.421l-1.271.079c-.717.046-1.042.282-1.042.726s.406.717.965.717a1.268,1.268,0,0,0,.486-.047,1.24,1.24,0,0,0,.429-.227,1.2,1.2,0,0,0,.3-.371A1.156,1.156,0,0,0,79.555,14.144Z" fill="#282830"/>
      <path id="Path_3489" data-name="Path 3489" d="M81.927,13.479c0-1.59.845-2.6,2.16-2.6a1.761,1.761,0,0,1,.931.217,1.685,1.685,0,0,1,.665.666h.077V9h1.027v7H85.8v-.8h-.081a1.777,1.777,0,0,1-.69.659,1.855,1.855,0,0,1-.944.219C82.763,16.08,81.927,15.073,81.927,13.479Zm1.061,0c0,1.067.52,1.71,1.39,1.71s1.4-.652,1.4-1.705-.54-1.71-1.4-1.71S82.988,12.42,82.988,13.479Z" fill="#282830"/>
      <path id="Path_3490" data-name="Path 3490" d="M91.035,13.479a2.311,2.311,0,0,1,.115-.98,2.369,2.369,0,0,1,.515-.851,2.468,2.468,0,0,1,.827-.577,2.543,2.543,0,0,1,1.995,0,2.465,2.465,0,0,1,.827.577,2.353,2.353,0,0,1,.514.851,2.3,2.3,0,0,1,.115.98,2.317,2.317,0,0,1-.113.981,2.359,2.359,0,0,1-.514.852,2.469,2.469,0,0,1-.828.578,2.542,2.542,0,0,1-2,0,2.462,2.462,0,0,1-.827-.578,2.366,2.366,0,0,1-.515-.852A2.311,2.311,0,0,1,91.035,13.479Zm3.851,0c0-1.091-.506-1.729-1.4-1.729s-1.395.638-1.395,1.729.5,1.733,1.395,1.733S94.886,14.574,94.886,13.479Z" fill="#282830"/>
      <path id="Path_3491" data-name="Path 3491" d="M97.321,10.964h.988v.8h.077a1.529,1.529,0,0,1,.629-.688,1.6,1.6,0,0,1,.925-.208,1.747,1.747,0,0,1,.744.108,1.688,1.688,0,0,1,.621.409,1.61,1.61,0,0,1,.378.629,1.592,1.592,0,0,1,.058.725V16h-1.026V12.988c0-.809-.365-1.211-1.123-1.211a1.231,1.231,0,0,0-.5.083,1.2,1.2,0,0,0-.421.278,1.153,1.153,0,0,0-.263.423,1.122,1.122,0,0,0-.055.491V16H97.321Z" fill="#282830"/>
      <path id="Path_3492" data-name="Path 3492" d="M107.543,9.712v1.276h1.127v.837h-1.127v2.588c0,.527.225.758.736.758a3.56,3.56,0,0,0,.391-.023v.827a3.477,3.477,0,0,1-.558.051c-1.143,0-1.6-.389-1.6-1.359V11.824h-.826v-.837h.826V9.712Z" fill="#282830"/>
      <path id="Path_3493" data-name="Path 3493" d="M110.073,9h1.018v2.773h.081a1.572,1.572,0,0,1,.647-.693,1.645,1.645,0,0,1,.94-.208,1.767,1.767,0,0,1,.737.119,1.705,1.705,0,0,1,.615.411,1.635,1.635,0,0,1,.376.625,1.6,1.6,0,0,1,.064.72V16h-1.028v-3c0-.8-.387-1.211-1.113-1.211a1.254,1.254,0,0,0-.52.069,1.222,1.222,0,0,0-.441.274,1.167,1.167,0,0,0-.281.429,1.152,1.152,0,0,0-.068.5V16h-1.027Z" fill="#282830"/>
      <path id="Path_3494" data-name="Path 3494" d="M120.539,14.638a2.048,2.048,0,0,1-.854,1.124,2.167,2.167,0,0,1-1.4.332,2.438,2.438,0,0,1-1-.186,2.364,2.364,0,0,1-.825-.575,2.26,2.26,0,0,1-.5-.857,2.2,2.2,0,0,1-.082-.98,2.257,2.257,0,0,1,.083-.983,2.31,2.31,0,0,1,.5-.861,2.386,2.386,0,0,1,.822-.584,2.47,2.47,0,0,1,1-.2A2.244,2.244,0,0,1,120.6,13.4v.347h-3.674v.056a1.3,1.3,0,0,0,.07.546,1.321,1.321,0,0,0,.293.472,1.382,1.382,0,0,0,.465.317,1.414,1.414,0,0,0,.557.108,1.286,1.286,0,0,0,.716-.123,1.235,1.235,0,0,0,.523-.487Zm-3.612-1.622h2.628a1.175,1.175,0,0,0-.07-.5,1.191,1.191,0,0,0-.272-.428,1.257,1.257,0,0,0-.428-.285,1.292,1.292,0,0,0-.51-.093,1.374,1.374,0,0,0-.519.095,1.346,1.346,0,0,0-.44.282,1.279,1.279,0,0,0-.291.425A1.254,1.254,0,0,0,116.927,13.016Z" fill="#282830"/>
    </g>
  </g>
</svg>
