<svg xmlns="http://www.w3.org/2000/svg" xmlns:xlink="http://www.w3.org/1999/xlink" width="100" height="100" viewBox="0 0 100 100">
  <defs>
    <clipPath id="clip-path">
      <rect id="Rectangle_3532" data-name="Rectangle 3532" width="100" height="100" transform="translate(797 343)" fill="#fff" stroke="#707070" stroke-width="1"/>
    </clipPath>
  </defs>
  <g id="Mask_Group_870" data-name="Mask Group 870" transform="translate(-797 -343)" clip-path="url(#clip-path)">
    <g id="barcode-scan" transform="translate(793.667 339.667)">
      <path id="Path_4817" data-name="Path 4817" d="M16.667,3.333H107.5v87.34H16.667Z" transform="translate(-4.167)" fill="#df183b"/>
      <path id="Path_4818" data-name="Path 4818" d="M16.667,3.333V81.939H90.032a8.734,8.734,0,0,0,8.734-8.734V3.333Z" transform="translate(-4.167)" fill="#f01c41"/>
      <path id="Path_4819" data-name="Path 4819" d="M63.333,60H98.269V80.962H63.333Z" transform="translate(-1.923 2.724)" fill="#eceef4"/>
      <path id="Path_4820" data-name="Path 4820" d="M63.333,60V75.721H87.788a5.24,5.24,0,0,0,5.24-5.24V60Z" transform="translate(-1.923 2.724)" fill="#fff"/>
      <path id="Path_4821" data-name="Path 4821" d="M8.333,76.667l-5,26.667H21.667V76.667Z" fill="#eceef4"/>
      <g id="Group_9370" data-name="Group 9370">
        <path id="Path_4822" data-name="Path 4822" d="M4.585,96.66l-1.252,6.673H21.667V96.66Z" fill="#bfc3cb"/>
        <path id="Path_4823" data-name="Path 4823" d="M43.333,76.667h-40V53.333h50Z" fill="#bfc3cb"/>
        <path id="Path_4824" data-name="Path 4824" d="M21.667,83.333h2.667V90H21.667Z" transform="translate(0 -4)" fill="#bfc3cb"/>
      </g>
      <g id="Group_9371" data-name="Group 9371" transform="translate(66.651 66.218)">
        <path id="Path_4825" data-name="Path 4825" d="M68.333,63.333h3.494v3.494H68.333Z" transform="translate(-68.333 -63.333)" fill="#c5c9d2"/>
        <path id="Path_4826" data-name="Path 4826" d="M68.333,68.333h3.494v8.734H68.333Z" transform="translate(-68.333 -63.093)" fill="#c5c9d2"/>
        <path id="Path_4827" data-name="Path 4827" d="M75,63.333h3.494v3.494H75Z" transform="translate(-68.013 -63.333)" fill="#c5c9d2"/>
        <path id="Path_4828" data-name="Path 4828" d="M75,68.333h3.494v8.734H75Z" transform="translate(-68.013 -63.093)" fill="#c5c9d2"/>
        <path id="Path_4829" data-name="Path 4829" d="M81.667,63.333H85.16v3.494H81.667Z" transform="translate(-67.692 -63.333)" fill="#c5c9d2"/>
        <path id="Path_4830" data-name="Path 4830" d="M81.667,68.333H85.16v8.734H81.667Z" transform="translate(-67.692 -63.093)" fill="#c5c9d2"/>
        <path id="Path_4831" data-name="Path 4831" d="M88.333,63.333h3.494v3.494H88.333Z" transform="translate(-67.372 -63.333)" fill="#c5c9d2"/>
        <path id="Path_4832" data-name="Path 4832" d="M88.333,68.333h3.494v8.734H88.333Z" transform="translate(-67.372 -63.093)" fill="#c5c9d2"/>
      </g>
      <path id="Path_4833" data-name="Path 4833" d="M48.333,3.333V36.522L60.561,26.042,72.789,36.522V3.333Z" transform="translate(-2.644)" fill="#f8ab36"/>
      <path id="Path_4834" data-name="Path 4834" d="M98.734,17.067H95.24v-5.24H90V8.333h6.987a1.747,1.747,0,0,1,1.747,1.747Z" transform="translate(-0.641 0.24)" fill="#fff"/>
      <path id="Path_4835" data-name="Path 4835" d="M25.16,17.067H21.667V10.08a1.747,1.747,0,0,1,1.747-1.747H30.4v3.494H25.16Z" transform="translate(-3.926 0.24)" fill="#fff"/>
      <path id="Path_4836" data-name="Path 4836" d="M95,20h3.494v3.494H95Z" transform="translate(-0.4 0.801)" fill="#fff"/>
      <path id="Path_4837" data-name="Path 4837" d="M3.333,53.333V70H36.667a5,5,0,0,0,5-5V53.333Z" fill="#eceef4"/>
      <path id="Path_4838" data-name="Path 4838" d="M48.333,3.333V22.548H62.308a5.24,5.24,0,0,0,5.24-5.24V3.333Z" transform="translate(-2.644)" fill="#ffb648"/>
    </g>
  </g>
</svg>
