<svg xmlns="http://www.w3.org/2000/svg" width="34" height="34" viewBox="0 0 34 34">
  <path id="Subtraction_54" data-name="Subtraction 54" d="M2779-4708a17.1,17.1,0,0,1-3.426-.346,16.963,16.963,0,0,1-3.191-.99,17.015,17.015,0,0,1-2.887-1.567,17.068,17.068,0,0,1-2.516-2.076,17.172,17.172,0,0,1-2.076-2.516,16.977,16.977,0,0,1-1.567-2.888,16.942,16.942,0,0,1-.991-3.192A17.127,17.127,0,0,1,2762-4725a17.154,17.154,0,0,1,.345-3.427,16.932,16.932,0,0,1,.991-3.191,16.931,16.931,0,0,1,1.567-2.887,17.12,17.12,0,0,1,2.076-2.516,17.136,17.136,0,0,1,2.516-2.077,16.942,16.942,0,0,1,2.887-1.566,16.883,16.883,0,0,1,3.191-.991A17.1,17.1,0,0,1,2779-4742a17.1,17.1,0,0,1,3.426.345,16.892,16.892,0,0,1,3.191.991,16.953,16.953,0,0,1,2.888,1.566,17.121,17.121,0,0,1,2.516,2.077,17.1,17.1,0,0,1,2.076,2.516,16.985,16.985,0,0,1,1.568,2.887,16.912,16.912,0,0,1,.99,3.191A17.136,17.136,0,0,1,2796-4725a17.11,17.11,0,0,1-.345,3.425,16.921,16.921,0,0,1-.99,3.192,17.031,17.031,0,0,1-1.568,2.888,17.187,17.187,0,0,1-2.076,2.516,17.053,17.053,0,0,1-2.516,2.076,17.017,17.017,0,0,1-2.888,1.567,16.966,16.966,0,0,1-3.191.99A17.1,17.1,0,0,1,2779-4708Zm3.1-19.944a.248.248,0,0,1,.172.057.333.333,0,0,1,.085.3,51.488,51.488,0,0,1-4.086,4.012c-.293.272-.546.507-.6.561-.132.136-.266.264-.4.388l0,0c-.475.455-.885.849-.845,1.285a.887.887,0,0,0,.224.482,2.909,2.909,0,0,0,.651.546c.663.438,1.2.806,1.722,1.161h0c.644.438,1.252.854,2.07,1.387.193.126.379.259.559.387a3.564,3.564,0,0,0,1.974.893c.052,0,.1,0,.156-.006.386-.036.9-.367,1.16-1.741.554-2.934,1.67-9.524,1.926-12.216a2.434,2.434,0,0,0-.029-.665.741.741,0,0,0-.241-.467,1.145,1.145,0,0,0-.665-.2c-.628.014-1.585.335-6.342,2.321-1.693.709-5.175,2.219-9.908,4.275-.805.33-1.218.641-1.26.947-.029.243.094.434.386.6a6.224,6.224,0,0,0,1.1.41l.355.11a12.934,12.934,0,0,0,2.647.624h.049a3.225,3.225,0,0,0,1.791-.681c4.179-2.824,7-4.712,7.163-4.741A.763.763,0,0,1,2782.1-4727.944Z" transform="translate(-2762 4742)" fill="#c5c9d2"/>
</svg>
